# xmcd
#
# Track frame offsets:
#	150
#	13062
#	32887
#	48547
#	71075
#	86225
#	104700
#	127737
#	151312
#	170787
#	185325
#	205912
#
# Disc length: 3069 seconds
#
# Revision: 0
# Processed by: cddbd v1.5.1PL0 Copyright (c) Steve Scherf et al.
# Submitted via: dBpowerAMP V4.0
#
DISCID=ab0bfb0c
DTITLE=Tom Gisler - Blue and Green
DYEAR=1999
DGENRE=Blues
TTITLE0=Sad
TTITLE1=Blue and Green
TTITLE2=Hello Pino
TTITLE3=Things have changed
TTITLE4=Low mood
TTITLE5=Hymn
TTITLE6=Behind the curtain
TTITLE7=Sit down
TTITLE8=Sample
TTITLE9=Hope
TTITLE10=Bimpf
TTITLE11=Keep it blue
EXTD=
EXTT0=
EXTT1=
EXTT2=
EXTT3=
EXTT4=
EXTT5=
EXTT6=
EXTT7=
EXTT8=
EXTT9=
EXTT10=
EXTT11=
PLAYORDER=
